<svg width="18" height="24" viewBox="0 0 18 24" fill="none" xmlns="http://www.w3.org/2000/svg">
<path d="M3.45946 7.38026C1.17872 11.9639 -0.192867 19.9465 5.47416 22.3413C6.67846 22.8439 7.97045 23.1026 9.2754 23.1026C10.5804 23.1026 11.8723 22.8439 13.0766 22.3413C18.0183 20.2855 18.0183 12.7907 14.4578 7.45311M6.7507 10.4213V19.0026M11.5118 10.4213V19.0026M5.64519 2.96767C5.64519 1.76711 7.1213 0.785156 8.93006 0.785156H9.33553C11.1443 0.785156 12.6205 1.76711 12.6205 2.96767M2.49014 3.20208H15.7723C16.4966 3.20208 17.0838 3.78923 17.0838 4.51351V6.06885C17.0838 6.79314 16.4966 7.38028 15.7723 7.38028H2.49014C1.76586 7.38028 1.17871 6.79314 1.17871 6.06885V4.51351C1.17871 3.78923 1.76586 3.20208 2.49014 3.20208Z" stroke="#FD5D69" stroke-width="1.54522" stroke-linecap="round" stroke-linejoin="round"/>
</svg>
