<svg width="11" height="7" viewBox="0 0 11 7" fill="none" xmlns="http://www.w3.org/2000/svg">
<path d="M10.6848 1.97519L5.99731 6.66269C5.93199 6.72824 5.85437 6.78025 5.76891 6.81574C5.68344 6.85123 5.59181 6.8695 5.49927 6.8695C5.40673 6.8695 5.31509 6.85123 5.22963 6.81574C5.14416 6.78025 5.06654 6.72824 5.00122 6.66269L0.31372 1.97519C0.181629 1.8431 0.107422 1.66395 0.107422 1.47715C0.107422 1.29034 0.181629 1.11119 0.31372 0.9791C0.44581 0.84701 0.624963 0.772803 0.811767 0.772803C0.99857 0.772803 1.17772 0.84701 1.30981 0.9791L5.49985 5.16914L9.68989 0.978515C9.82198 0.846425 10.0011 0.772217 10.1879 0.772217C10.3747 0.772217 10.5539 0.846425 10.686 0.978515C10.8181 1.11061 10.8923 1.28976 10.8923 1.47656C10.8923 1.66337 10.8181 1.84252 10.686 1.97461L10.6848 1.97519Z" fill="#808080"/>
</svg>
