<svg width="17" height="16" viewBox="0 0 17 16" fill="none" xmlns="http://www.w3.org/2000/svg">
<path d="M16.0459 13.954C16.2572 14.1653 16.376 14.452 16.376 14.7509C16.376 15.0497 16.2572 15.3364 16.0459 15.5477C15.8346 15.7591 15.5479 15.8778 15.249 15.8778C14.9501 15.8778 14.6635 15.7591 14.4521 15.5477L8.49996 9.59367L2.5459 15.5459C2.33455 15.7572 2.04791 15.8759 1.74902 15.8759C1.45014 15.8759 1.16349 15.7572 0.952147 15.5459C0.740802 15.3345 0.62207 15.0479 0.62207 14.749C0.62207 14.4501 0.740803 14.1635 0.952147 13.9521L6.90621 7.99992L0.954022 2.04586C0.742677 1.83451 0.623945 1.54787 0.623945 1.24898C0.623945 0.950097 0.742677 0.663452 0.954022 0.452108C1.16537 0.240763 1.45201 0.122031 1.7509 0.122031C2.04978 0.122031 2.33643 0.240763 2.54777 0.452108L8.49996 6.40617L14.454 0.45117C14.6654 0.239826 14.952 0.121094 15.2509 0.121094C15.5498 0.121094 15.8364 0.239826 16.0478 0.45117C16.2591 0.662514 16.3778 0.949159 16.3778 1.24804C16.3778 1.54693 16.2591 1.83358 16.0478 2.04492L10.0937 7.99992L16.0459 13.954Z" fill="#1A1A1A"/>
</svg>
